Coordinates
version=1
nRows=12
nColumns=28
inDegrees=yes

Units are S.I. units (second, meters, Newtons, ...)
If the header above contains a line with 'inDegrees', this indicates whether rotational values are in degrees (yes) or radians (no).

endheader
time	pelvis_tilt	pelvis_list	pelvis_rotation	pelvis_tx	pelvis_ty	pelvis_tz	hip_flexion_r	hip_adduction_r	hip_rotation_r	knee_angle_r	knee_rotation_r	knee_adduction_r	ankle_angle_r	subtalar_angle_r	mtp_angle_r	hip_flexion_l	hip_adduction_l	hip_rotation_l	knee_angle_l	knee_rotation_l	knee_adduction_l	ankle_angle_l	subtalar_angle_l	mtp_angle_l	lumbar_extension	lumbar_bending	lumbar_rotation
      0.00000000	     -4.98119009	     10.31291472	    -90.70872637	     -0.21971255	      0.95584665	     -0.77173832	     11.05819698	      7.96525451	     24.31796251	    -15.85438691	     -6.70807707	      4.58436767	     11.90141066	    -10.38718727	      1.78092512	     41.84402909	     -6.64928029	     10.37273699	    -29.62636873	      4.69337560	     -3.28550635	     15.95739728	     -0.22565810	     -0.09389782	      0.00000000	      0.00000000	      0.00000000
      0.01000000	     -4.81094744	     10.61050042	    -90.74851043	     -0.21892564	      0.95468462	     -0.76066239	     10.80231188	      7.56339326	     24.00247274	    -16.26706168	     -7.00387372	      4.97498167	     13.32740665	     -8.85330109	      1.75858231	     41.26113761	     -6.08871191	     10.59728551	    -25.14733444	      5.13366051	     -2.35598171	     16.29582210	      1.15586459	     -0.10685561	      0.00000000	      0.00000000	      0.00000000
      0.02000000	     -4.62229728	     10.82138291	    -90.67859826	     -0.21796692	      0.95368910	     -0.74917088	     10.15042968	      7.04048921	     23.62373913	    -15.76496212	     -6.64112580	      5.34638250	     12.98593703	    -10.04411393	      2.67077789	     40.46492037	     -5.55124673	     10.84360352	    -20.60385546	      5.13036357	     -1.54732927	     16.65621921	      2.37294979	     -0.07080907	      0.00000000	      0.00000000	      0.00000000
      0.03000000	     -4.32505900	     11.12302643	    -90.75551309	     -0.21703555	      0.95260338	     -0.73773935	      9.75443500	      6.42835708	     23.04889730	    -15.83752217	     -6.56029802	      5.64259719	     13.97516506	     -8.82127373	      3.16875848	     39.56717373	     -5.12681580	     11.36735718	    -15.87934889	      5.74900539	     -1.03937582	     16.62684465	      3.60125903	     -0.00353688	      0.00000000	      0.00000000	      0.00000000
      0.04000000	     -3.94967225	     11.57576027	    -90.94159634	     -0.21630481	      0.95120531	     -0.72596906	      9.49399780	      5.76358074	     22.64449785	    -15.83222321	     -6.11318579	      6.02104203	     14.48185671	     -8.83431332	      3.41035770	     38.61880711	     -4.87882954	     12.24521270	    -10.97834468	      6.96856181	     -0.86703692	     15.80593274	      4.42696006	      0.04764713	      0.00000000	      0.00000000	      0.00000000
      0.05000000	     -3.79681454	     11.27807192	    -91.16253615	     -0.21560045	      0.95067287	     -0.71416950	      8.47778878	      5.28413139	     21.95551494	    -15.85724588	     -5.90334859	      6.30758955	     14.93312367	     -8.08767273	      3.89686874	     37.06552140	     -5.05060648	     13.42266262	     -6.73545861	      8.78799173	     -1.15501751	     15.20628713	      5.10869885	     -0.02108940	      0.00000000	      0.00000000	      0.00000000
      0.06000000	     -3.77225856	     11.16831173	    -91.60094992	     -0.21552812	      0.94957865	     -0.70223623	      7.68581983	      5.07207050	     21.85369665	    -15.89103108	     -5.55192619	      6.62801617	     15.10956949	     -7.97570960	      4.46764066	     36.33042209	     -5.34422561	     13.33838348	     -4.26326341	     10.47499985	     -1.24095451	     15.24040886	      7.07210591	     -0.22093473	      0.00000000	      0.00000000	      0.00000000
      0.07000000	     -3.84430542	     11.07903514	    -91.96559656	     -0.21575881	      0.94840244	     -0.69045026	      7.02799440	      5.08788793	     21.84041752	    -16.32141059	     -5.65683298	      6.75236639	     15.76168285	     -7.14243696	      4.84113513	     36.20372049	     -5.55159918	     12.70045587	     -3.36979986	     12.18560562	     -1.25161703	     15.85901324	     10.06171843	     -0.42617142	      0.00000000	      0.00000000	      0.00000000
      0.08000000	     -3.91614679	     10.92160514	    -92.39791426	     -0.21605393	      0.94724693	     -0.67871790	      6.37762666	      5.09556699	     21.99202968	    -16.83857152	     -5.88324032	      7.01189066	     16.01358225	     -6.26728666	      5.21417173	     36.26018760	     -5.75230002	     12.15980231	     -3.50857396	     13.41089615	     -1.43626766	     16.55069833	     12.21020411	     -0.49543517	      0.00000000	      0.00000000	      0.00000000
      0.09000000	     -4.03831812	     10.87047292	    -92.73467438	     -0.21619473	      0.94572210	     -0.66680757	      5.88742359	      5.20556895	     22.07509245	    -17.45417619	     -5.85184861	      7.18043247	     16.07883455	     -6.25894921	      5.51384794	     36.64682930	     -5.88949657	     11.52116717	     -4.47998724	     13.26248238	     -1.69331785	     16.96081146	     12.57787421	     -0.38102210	      0.00000000	      0.00000000	      0.00000000
      0.10000000	     -4.35684316	     10.78275920	    -93.11731906	     -0.21610449	      0.94431284	     -0.65467601	      5.15172462	      5.50845408	     22.13398103	    -17.67491706	     -5.26202823	      7.05940335	     15.95628652	     -6.28123362	      5.92416900	     37.20048933	     -6.14538729	     10.49684594	     -6.23088140	     11.92620674	     -1.89846440	     17.36091430	     12.10612516	     -0.13442507	      0.00000000	      0.00000000	      0.00000000
      0.11000000	     -4.68876926	     10.79206356	    -93.54245006	     -0.21634418	      0.94238490	     -0.64288507	      4.79948118	      5.91491819	     22.78802969	    -18.49169995	     -5.73016036	      7.24662643	     16.06156402	     -5.88726633	      6.49273894	     38.10545322	     -6.43303294	      9.02061330	     -8.76648040	      9.40346487	     -2.06982732	     17.55570585	     10.23731337	      0.07751114	      0.00000000	      0.00000000	      0.00000000
